<svg width="32" height="32" viewBox="0 0 32 32" fill="none" xmlns="http://www.w3.org/2000/svg">
<path d="M31.9242 21.2963C31.7667 22.5888 30.865 23.5871 29.5975 23.8705C27.87 24.2571 26.1425 22.9413 26.0708 21.1705C26.0608 20.9321 25.9817 20.8338 25.7658 20.7521C24.2233 20.1696 22.6858 19.5721 21.1183 18.968C20.615 19.7971 19.9683 20.4871 19.1367 21.0138C19.1675 21.1038 19.1883 21.1821 19.22 21.2563C19.8617 22.7763 20.5067 24.2946 21.1458 25.8155C21.215 25.9796 21.28 26.0788 21.4967 26.0813C23.0208 26.1021 24.2667 27.2255 24.3983 28.6771C24.5408 30.2538 23.5758 31.5663 22.0333 31.8955C21.9858 31.9063 21.9408 31.933 21.895 31.9521H21.0217C20.9658 31.9305 20.9108 31.9013 20.8533 31.8888C19.3175 31.5421 18.3317 30.0805 18.5775 28.5188C18.685 27.833 19.0242 27.2771 19.5258 26.8021C18.835 25.1688 18.1508 23.5438 17.4525 21.9246C17.4233 21.8571 17.2542 21.798 17.165 21.8146C16.2517 21.9838 15.3358 22.0055 14.4517 21.7188C13.7683 21.498 13.1183 21.1755 12.45 20.8971C11.3567 21.9913 10.22 23.1288 9.075 24.2738C9.10417 24.3238 9.14583 24.3946 9.18833 24.4655C10.7567 27.0663 9.5825 30.5196 6.74417 31.6138C6.3425 31.7688 5.90833 31.8413 5.48917 31.9521H4.42917C4.37 31.9338 4.3125 31.9096 4.2525 31.8988C2.135 31.523 0.7775 30.2946 0.16 28.2421C0.095 28.0271 0.0525 27.8046 0 27.5855V26.463C0.106667 26.0521 0.1775 25.628 0.326667 25.2338C1.4125 22.3663 4.89583 21.1838 7.515 22.7813C7.57667 22.8188 7.64 22.8538 7.68 22.8771C8.82667 21.7313 9.96417 20.5946 11.1233 19.4363C10.4633 18.483 10.0725 17.4071 10.0292 16.213C9.98667 15.0296 10.2725 13.9305 10.8858 12.8955C10.0033 12.1455 9.135 11.4071 8.27167 10.6738C6.16583 12.0763 3.95167 11.2655 2.88583 9.95464C1.675 8.4663 1.7125 6.31464 2.97417 4.88214C4.2625 3.4188 6.375 3.09464 8.0125 4.10214C9.4825 5.00547 10.49 7.06297 9.485 9.23547C9.9125 9.59964 10.3458 9.96964 10.7792 10.338C11.2142 10.708 11.6483 11.0763 12.0808 11.4438C14.4717 9.6663 16.9142 9.56297 19.4683 11.1363C19.52 11.0888 19.5967 11.0238 19.6675 10.9538C21.2483 9.3738 22.8258 7.7913 24.4125 6.21714C24.5725 6.05797 24.5817 5.9488 24.4833 5.74297C23.7533 4.2188 23.9042 2.75714 24.9658 1.45547C26.0175 0.16547 27.4283 -0.273697 29.0233 0.164637C30.6275 0.60547 31.6158 1.70964 31.8775 3.36464C32.125 4.9288 31.575 6.2263 30.2908 7.1463C29.0125 8.06297 27.6225 8.15547 26.1958 7.46797C26.0525 7.39964 25.95 7.32297 25.7925 7.48214C24.1683 9.1213 22.5333 10.7496 20.9025 12.3821C20.8675 12.418 20.84 12.4613 20.8017 12.5121C21.7933 13.9355 22.1083 15.5021 21.795 17.2155C22.3233 17.418 22.8358 17.613 23.3467 17.8105C24.4025 18.2171 25.4583 18.6213 26.5108 19.0355C26.67 19.098 26.76 19.0788 26.8833 18.9538C27.82 18.0055 29.1092 17.7863 30.2883 18.3596C31.41 18.9046 32.07 20.0905 31.9242 21.2963Z" fill="#FF782D"/>
</svg>
